<svg width="2052" height="568" viewBox="0 0 2052 568" fill="none" xmlns="http://www.w3.org/2000/svg">
<path d="M147.671 568C53.4513 568 0 508.355 0 400.078C0 234.908 116.868 105.525 273.598 105.525C331.579 105.525 374.159 122.96 397.714 143.147L456.601 106.443H505.523L433.046 451.464C430.328 464.31 428.517 471.651 428.517 478.074C428.517 490.921 434.858 496.426 445.73 496.426C459.319 496.426 472.002 488.168 485.592 474.404L495.557 464.31L505.523 494.591L496.463 506.52C460.225 551.483 425.799 568 379.595 568C327.05 568 297.153 545.977 291.717 503.767C289.905 495.509 289.905 485.415 291.717 473.486C257.291 529.46 212.899 568 147.671 568ZM211.993 485.415C243.702 485.415 273.598 464.31 298.059 426.688L347.887 188.11C329.768 167.922 308.931 157.829 281.752 157.829C211.993 157.829 148.577 265.189 148.577 393.654C148.577 458.805 168.508 485.415 211.993 485.415Z" fill="#203A3B"/>
<path d="M688.002 568C620.055 568 560.262 557.906 521.306 543.224L514.964 427.606H555.732L575.663 452.381C617.337 502.85 645.422 514.779 688.908 514.779C744.171 514.779 768.632 495.509 768.632 461.557C768.632 427.606 744.171 412.006 676.224 394.572C563.886 366.126 520.4 331.257 520.4 251.425C520.4 160.582 601.936 105.525 716.086 105.525C775.879 105.525 830.237 115.619 868.287 129.383L874.628 239.496H833.86L813.93 211.968C784.033 170.675 764.102 158.746 719.71 158.746C674.412 158.746 646.328 176.181 646.328 209.215C646.328 242.249 670.789 258.766 749.607 276.2C857.415 300.976 895.465 341.351 895.465 420.265C895.465 512.943 814.835 568 688.002 568Z" fill="#203A3B"/>
<path d="M1090.71 568C996.493 568 943.042 531.296 943.042 423.018V177.099H882.343V133.971C947.572 96.349 979.28 74.3264 1030.01 27.5282L1058.1 0H1087.99V114.701H1222.98V177.099H1087.99V420.265C1087.99 468.898 1107.02 491.838 1145.98 491.838C1169.53 491.838 1190.37 484.498 1215.73 463.393L1236.57 490.003C1202.15 546.895 1155.04 568 1090.71 568Z" fill="#203A3B"/>
<path d="M1622.26 434.029L1647.63 456.969C1611.39 523.955 1543.45 568 1445.6 568C1302.46 568 1203.71 488.168 1203.71 336.763C1203.71 190.863 1307.9 105.525 1439.26 105.525C1575.15 105.525 1646.72 182.604 1646.72 315.658V332.174H1356.82C1360.44 450.546 1411.18 485.415 1490.9 485.415C1542.54 485.415 1584.21 470.733 1622.26 434.029ZM1439.26 158.746C1392.15 158.746 1364.07 205.544 1357.72 286.294L1506.3 278.036C1509.92 203.709 1488.18 158.746 1439.26 158.746Z" fill="#203A3B"/>
<path d="M1899.8 558.824H1629.83V523.037L1649.76 517.531C1681.46 508.355 1683.28 496.426 1683.28 459.722V233.073C1683.28 200.956 1677.84 190.863 1655.19 185.357L1631.64 178.934V144.065L1808.3 105.525H1829.14L1818.26 213.803C1858.13 144.065 1912.48 105.525 1966.84 105.525C2020.29 105.525 2052 137.641 2052 189.945C2052 238.578 2020.29 271.612 1973.18 271.612C1929.7 271.612 1900.71 243.166 1900.71 203.709C1900.71 199.121 1900.71 196.368 1901.61 192.698C1878.06 200.956 1851.78 219.309 1829.14 249.59V459.722C1829.14 496.426 1833.66 508.355 1868.09 515.696L1899.8 523.037V558.824Z" fill="#203A3B"/>
</svg>
